# xmcd
# Copyright (C) 1995-1998 Ti Kan
#
# Track frame offsets:
#       150
#       18308
#       38857
#       56770
#       74950
#       92428
#       115294
#       135864
#       156008
#       172492
#       190246
#
# Disc length: 2835 seconds
#
# Revision: 0
# Processed by: cddbd v1.5.1PL0 Copyright (c) Steve Scherf et al.
# Submitted via: CD-Transfer v1.0
#
DISCID=9a0b110b
DTITLE=Ferid - 
DYEAR=2004
DGENRE=
TTITLE0=Ityle
TTITLE1=Moja
TTITLE2=Kiedychcesz
TTITLE3=Fotografia
TTITLE4=Bracie
TTITLE5=Podarowanedni
TTITLE6=Gosc
TTITLE7=Tysiacdrzwi
TTITLE8=Cofnacczas
TTITLE9=Krotkielato
TTITLE10=Szklanydom
EXTD=
EXTT0=
EXTT1=
EXTT2=
EXTT3=
EXTT4=
EXTT5=
EXTT6=
EXTT7=
EXTT8=
EXTT9=
EXTT10=
PLAYORDER=
